<svg width="77" height="23" viewBox="0 0 77 23" fill="none" xmlns="http://www.w3.org/2000/svg">
<path d="M11.4904 22.4205C9.70064 22.4205 8.10973 22.1761 6.71768 21.6875C5.33132 21.2045 4.16087 20.4943 3.20632 19.5568C2.25178 18.6136 1.52734 17.4659 1.03303 16.1136C0.538707 14.7614 0.288707 13.2159 0.283026 11.4773C0.288707 9.77841 0.541548 8.24716 1.04155 6.88352C1.54155 5.5142 2.27166 4.34375 3.23189 3.37216C4.19212 2.39489 5.36541 1.64489 6.75178 1.12216C8.13814 0.599431 9.71484 0.338068 11.4819 0.338068C13.1467 0.338068 14.6211 0.590909 15.9052 1.09659C17.195 1.60227 18.283 2.30682 19.1694 3.21023C20.0614 4.10795 20.7347 5.15909 21.1893 6.36364C21.6495 7.5625 21.8796 8.86364 21.8796 10.267C21.8796 11.2386 21.8058 12.1591 21.658 13.0284C21.5103 13.892 21.2575 14.6591 20.8995 15.3295C20.5472 16 20.0671 16.5341 19.4592 16.9318C18.8512 17.3239 18.0898 17.5369 17.1751 17.571C16.6012 17.5994 16.0984 17.5455 15.6665 17.4091C15.2347 17.2727 14.8853 17.0597 14.6183 16.7699C14.3569 16.4744 14.1921 16.1136 14.1239 15.6875H14.0217C13.891 16.0284 13.6438 16.3409 13.2802 16.625C12.9222 16.9034 12.479 17.1222 11.9506 17.2812C11.4222 17.4347 10.8342 17.4972 10.1864 17.4688C9.49325 17.4347 8.85121 17.2756 8.2603 16.9915C7.67507 16.7017 7.16371 16.2983 6.72621 15.7812C6.29439 15.2585 5.95916 14.6278 5.72053 13.8892C5.48189 13.1506 5.36257 12.3125 5.36257 11.375C5.36257 10.4602 5.49325 9.65341 5.75462 8.95455C6.01598 8.25568 6.36541 7.65909 6.80291 7.16477C7.24609 6.67045 7.74609 6.28409 8.30291 6.00568C8.85973 5.72159 9.43359 5.53977 10.0245 5.46023C10.6381 5.375 11.2148 5.38352 11.7546 5.48579C12.2944 5.58807 12.7433 5.74432 13.1012 5.95454C13.4648 6.16477 13.6921 6.39489 13.783 6.64489H13.9023V5.69034H16.2802V13.804C16.2859 14.2301 16.3881 14.5739 16.587 14.8352C16.7915 15.0966 17.0756 15.2273 17.4393 15.2273C17.8938 15.2273 18.2603 15.0483 18.5387 14.6903C18.8228 14.3267 19.0273 13.7699 19.1523 13.0199C19.283 12.2642 19.3455 11.2983 19.3398 10.1222C19.3455 9.15625 19.2177 8.28125 18.9563 7.49716C18.7006 6.70739 18.337 6.0142 17.8654 5.41761C17.3938 4.82102 16.8285 4.32386 16.1694 3.92614C15.516 3.52273 14.7887 3.21875 13.9876 3.0142C13.1864 2.80966 12.3313 2.70739 11.4222 2.70739C10.0302 2.70739 8.80575 2.92045 7.74893 3.34659C6.69212 3.76704 5.80575 4.36648 5.08984 5.14489C4.37962 5.9233 3.84268 6.84659 3.47905 7.91477C3.12109 8.97727 2.94212 10.1534 2.94212 11.4432C2.94212 12.8239 3.12962 14.0483 3.50462 15.1165C3.8853 16.179 4.44212 17.0739 5.17507 17.8011C5.90803 18.5284 6.81428 19.0795 7.89382 19.4545C8.97905 19.8295 10.2262 20.017 11.6353 20.017C12.283 20.017 12.9165 19.9659 13.5359 19.8636C14.1552 19.7614 14.712 19.642 15.2063 19.5057C15.7006 19.3693 16.0813 19.25 16.3484 19.1477L17.0728 21.3125C16.7205 21.4943 16.2433 21.6705 15.641 21.8409C15.0444 22.0114 14.3853 22.1506 13.6637 22.2585C12.9478 22.3665 12.2234 22.4205 11.4904 22.4205ZM10.8938 15.0227C11.6154 15.0227 12.1921 14.8835 12.6239 14.6051C13.0558 14.321 13.3654 13.9006 13.5529 13.3438C13.7404 12.7869 13.8313 12.0937 13.8256 11.2642C13.8256 10.4915 13.729 9.85795 13.5359 9.36364C13.3427 8.86932 13.033 8.50284 12.6069 8.2642C12.1808 8.02557 11.6154 7.90625 10.9109 7.90625C10.2745 7.90625 9.73189 8.05114 9.28303 8.34091C8.83984 8.63068 8.49893 9.03125 8.2603 9.54261C8.02734 10.0483 7.91087 10.625 7.91087 11.2727C7.91087 11.9205 8.00462 12.5312 8.19212 13.1051C8.3853 13.6733 8.6978 14.1364 9.12962 14.4943C9.56712 14.8466 10.1552 15.0227 10.8938 15.0227ZM27.0295 20H23.6545L29.7994 2.54545H33.7028L39.8562 20H36.4812L31.8192 6.125H31.6829L27.0295 20ZM27.1403 13.1562H36.3448V15.696H27.1403V13.1562ZM51.3597 7.34375C51.2802 6.59943 50.945 6.01989 50.354 5.60511C49.7688 5.19034 49.0075 4.98295 48.07 4.98295C47.4109 4.98295 46.8455 5.08239 46.3739 5.28125C45.9023 5.48011 45.5415 5.75 45.2915 6.09091C45.0415 6.43182 44.9137 6.82102 44.908 7.25852C44.908 7.62216 44.9904 7.9375 45.1552 8.20455C45.3256 8.47159 45.5558 8.69886 45.8455 8.88636C46.1353 9.06818 46.4563 9.22159 46.8086 9.34659C47.1609 9.47159 47.516 9.5767 47.8739 9.66193L49.5103 10.071C50.1694 10.2244 50.8029 10.4318 51.4109 10.6932C52.0245 10.9545 52.5728 11.2841 53.0558 11.6818C53.5444 12.0795 53.9308 12.5597 54.2148 13.1222C54.4989 13.6847 54.641 14.3437 54.641 15.0994C54.641 16.1222 54.3796 17.0227 53.8569 17.8011C53.3342 18.5739 52.5785 19.179 51.5898 19.6165C50.6069 20.0483 49.4165 20.2642 48.0188 20.2642C46.6609 20.2642 45.4819 20.054 44.4819 19.6335C43.4876 19.2131 42.7092 18.5994 42.1467 17.7926C41.5898 16.9858 41.2887 16.0028 41.2433 14.8438H44.354C44.3995 15.4517 44.587 15.9574 44.9165 16.3608C45.2461 16.7642 45.6751 17.0653 46.2035 17.2642C46.7376 17.4631 47.3342 17.5625 47.9933 17.5625C48.6808 17.5625 49.283 17.4602 49.8001 17.2557C50.3228 17.0455 50.7319 16.7557 51.0273 16.3864C51.3228 16.0114 51.4734 15.5739 51.479 15.0739C51.4734 14.6193 51.3398 14.2443 51.0785 13.9489C50.8171 13.6477 50.4506 13.3977 49.979 13.1989C49.5131 12.9943 48.9677 12.8125 48.3427 12.6534L46.3569 12.142C44.9194 11.7727 43.783 11.2131 42.9478 10.4631C42.1183 9.70739 41.7035 8.70455 41.7035 7.45454C41.7035 6.42614 41.9819 5.52557 42.5387 4.75284C43.1012 3.98011 43.8654 3.38068 44.8313 2.95454C45.7972 2.52273 46.891 2.30682 48.1126 2.30682C49.3512 2.30682 50.4364 2.52273 51.3683 2.95454C52.3058 3.38068 53.0415 3.97443 53.5756 4.73579C54.1097 5.49148 54.3853 6.3608 54.4023 7.34375H51.3597ZM60.6218 2.54545V20H57.4599V2.54545H60.6218ZM73.5316 7.34375C73.4521 6.59943 73.1168 6.01989 72.5259 5.60511C71.9407 5.19034 71.1793 4.98295 70.2418 4.98295C69.5827 4.98295 69.0174 5.08239 68.5458 5.28125C68.0742 5.48011 67.7134 5.75 67.4634 6.09091C67.2134 6.43182 67.0856 6.82102 67.0799 7.25852C67.0799 7.62216 67.1623 7.9375 67.3271 8.20455C67.4975 8.47159 67.7276 8.69886 68.0174 8.88636C68.3072 9.06818 68.6282 9.22159 68.9805 9.34659C69.3327 9.47159 69.6879 9.5767 70.0458 9.66193L71.6822 10.071C72.3413 10.2244 72.9748 10.4318 73.5827 10.6932C74.1964 10.9545 74.7447 11.2841 75.2276 11.6818C75.7163 12.0795 76.1026 12.5597 76.3867 13.1222C76.6708 13.6847 76.8129 14.3437 76.8129 15.0994C76.8129 16.1222 76.5515 17.0227 76.0288 17.8011C75.506 18.5739 74.7504 19.179 73.7617 19.6165C72.7788 20.0483 71.5884 20.2642 70.1907 20.2642C68.8327 20.2642 67.6538 20.054 66.6538 19.6335C65.6594 19.2131 64.881 18.5994 64.3185 17.7926C63.7617 16.9858 63.4606 16.0028 63.4151 14.8438H66.5259C66.5714 15.4517 66.7589 15.9574 67.0884 16.3608C67.418 16.7642 67.8469 17.0653 68.3754 17.2642C68.9094 17.4631 69.506 17.5625 70.1651 17.5625C70.8526 17.5625 71.4549 17.4602 71.9719 17.2557C72.4947 17.0455 72.9038 16.7557 73.1992 16.3864C73.4947 16.0114 73.6452 15.5739 73.6509 15.0739C73.6452 14.6193 73.5117 14.2443 73.2504 13.9489C72.989 13.6477 72.6225 13.3977 72.1509 13.1989C71.685 12.9943 71.1396 12.8125 70.5146 12.6534L68.5288 12.142C67.0913 11.7727 65.9549 11.2131 65.1197 10.4631C64.2901 9.70739 63.8754 8.70455 63.8754 7.45454C63.8754 6.42614 64.1538 5.52557 64.7106 4.75284C65.2731 3.98011 66.0373 3.38068 67.0032 2.95454C67.9691 2.52273 69.0629 2.30682 70.2844 2.30682C71.5231 2.30682 72.6083 2.52273 73.5401 2.95454C74.4776 3.38068 75.2134 3.97443 75.7475 4.73579C76.2816 5.49148 76.5572 6.3608 76.5742 7.34375H73.5316Z" fill="#0B0B0B"/>
</svg>
