<svg width="304" height="304" viewBox="0 0 304 304" fill="none" xmlns="http://www.w3.org/2000/svg">
<g opacity="0.7">
<path d="M238.663 177.314C241.563 177.315 244.384 176.418 246.699 174.758C249.013 173.099 250.695 170.768 251.49 168.119L278.156 79.4638C278.721 77.579 278.819 75.5953 278.44 73.6688C278.061 71.7423 277.217 69.9256 275.974 68.3616C274.73 66.7976 273.122 65.529 271.275 64.6556C269.428 63.7822 267.393 63.328 265.33 63.3285H88.9321L80.9989 34.7687C80.2481 32.0645 78.5761 29.6723 76.2438 27.9655C73.9115 26.2586 71.05 25.3331 68.1057 25.3333H38.6662C35.13 25.3333 31.7386 26.6676 29.2382 29.0428C26.7377 31.4179 25.333 34.6393 25.333 37.9983C25.333 41.3573 26.7377 44.5787 29.2382 46.9539C31.7386 49.3291 35.13 50.6634 38.6662 50.6634H57.8392L65.8391 79.2232V79.3498V79.4638L92.5054 168.119L102.452 205.937C95.8671 208.711 90.1929 213.122 86.0285 218.704C81.864 224.287 79.3638 230.834 78.7919 237.655C78.22 244.475 79.5976 251.316 82.7792 257.454C85.9608 263.593 90.8285 268.801 96.868 272.53C102.908 276.258 109.895 278.368 117.093 278.637C124.29 278.906 131.43 277.324 137.76 274.058C144.089 270.792 149.372 265.962 153.052 260.08C156.731 254.198 158.67 247.482 158.664 240.64C158.62 236.315 157.79 232.031 156.211 227.975H187.784C186.205 232.031 185.375 236.315 185.331 240.64C185.331 248.154 187.677 255.5 192.072 261.749C196.467 267.997 202.714 272.867 210.023 275.743C217.332 278.618 225.375 279.371 233.134 277.905C240.893 276.439 248.02 272.82 253.614 267.506C259.208 262.193 263.018 255.422 264.561 248.052C266.104 240.682 265.312 233.042 262.285 226.099C259.257 219.157 254.131 213.223 247.553 209.048C240.975 204.873 233.241 202.644 225.33 202.644H129.065L122.398 177.314H238.663ZM247.65 88.6586L228.61 151.984H115.385L96.3453 88.6586H247.65ZM131.998 240.64C131.998 243.145 131.216 245.593 129.751 247.676C128.286 249.759 126.204 251.382 123.767 252.341C121.331 253.299 118.65 253.55 116.064 253.061C113.477 252.573 111.102 251.366 109.237 249.595C107.372 247.824 106.103 245.567 105.588 243.11C105.074 240.654 105.338 238.107 106.347 235.793C107.356 233.479 109.065 231.501 111.258 230.109C113.45 228.717 116.028 227.975 118.665 227.975C122.201 227.975 125.593 229.309 128.093 231.684C130.593 234.059 131.998 237.281 131.998 240.64ZM225.33 253.305C222.693 253.305 220.115 252.562 217.923 251.17C215.73 249.779 214.021 247.801 213.012 245.486C212.003 243.172 211.739 240.626 212.253 238.169C212.768 235.712 214.038 233.455 215.902 231.684C217.767 229.913 220.143 228.707 222.729 228.218C225.315 227.729 227.996 227.98 230.433 228.939C232.869 229.897 234.951 231.52 236.416 233.603C237.881 235.686 238.663 238.135 238.663 240.64C238.663 243.999 237.259 247.22 234.758 249.595C232.258 251.97 228.866 253.305 225.33 253.305Z" fill="#0B0B0B"/>
</g>
</svg>
