<svg width="24" height="24" viewBox="0 0 24 24" fill="none" xmlns="http://www.w3.org/2000/svg">
<path d="M12.0001 16.1976L11.697 15.8945L4.22292 8.42044C4.22291 8.42043 4.22289 8.42041 4.22288 8.4204C4.1827 8.3803 4.12826 8.35777 4.07149 8.35777C4.01471 8.35777 3.96024 8.38031 3.92006 8.42044L3.6172 8.11721L3.92044 8.42006C3.88031 8.46024 3.85777 8.5147 3.85777 8.57149C3.85777 8.62825 3.88029 8.68269 3.92038 8.72286C3.9204 8.72288 3.92042 8.7229 3.92044 8.72292L11.8486 16.6511L12.0001 16.1976ZM12.0001 16.1976L12.3031 15.8945M12.0001 16.1976L12.3031 15.8945M12.3031 15.8945L19.7774 8.42025L19.7827 8.4149M12.3031 15.8945L19.7827 8.4149M19.7827 8.4149L19.7879 8.40937M19.7827 8.4149L19.7879 8.40937M19.7879 8.40937C19.8075 8.38832 19.8312 8.37143 19.8575 8.35972C19.8837 8.34801 19.9121 8.34171 19.9409 8.3412C19.9697 8.34069 19.9982 8.34599 20.0249 8.35677C20.0516 8.36754 20.0758 8.38358 20.0962 8.40393C20.1165 8.42428 20.1326 8.44852 20.1434 8.47521C20.1541 8.50188 20.1594 8.53046 20.1589 8.55924C20.1584 8.58801 20.1521 8.61638 20.1404 8.64266L20.5319 8.81709M19.7879 8.40937L20.5319 8.81709M20.5319 8.81709L20.1404 8.64267C20.1287 8.66895 20.1118 8.69261 20.0908 8.71223L20.0852 8.71738M20.5319 8.81709L20.0852 8.71738M20.0852 8.71738L20.0799 8.72273M20.0852 8.71738L20.0799 8.72273M20.0799 8.72273L12.1515 16.6511L20.0799 8.72273ZM12.0001 16.7138C12.0568 16.7138 12.1111 16.6913 12.1513 16.6513L12.0001 16.7138ZM12.0001 16.7138C11.9434 16.7138 11.889 16.6913 11.8488 16.6513L12.0001 16.7138Z" fill="black" stroke="#0B0B0B" stroke-width="0.857143"/>
</svg>
