<svg width="48" height="48" viewBox="0 0 48 48" fill="none" xmlns="http://www.w3.org/2000/svg">
<g filter="url(#filter0_b_365_2267)">
<mask id="path-3-inside-1_365_2267" fill="white">
<path d="M15.6172 20.1172C15.7377 19.9968 15.9011 19.9292 16.0715 19.9292C16.2418 19.9292 16.4052 19.9968 16.5258 20.1172L24.0001 27.5915L31.4743 20.1172C31.5332 20.054 31.6042 20.0034 31.683 19.9682C31.7619 19.9331 31.847 19.9142 31.9333 19.9127C32.0196 19.9112 32.1054 19.9271 32.1854 19.9594C32.2655 19.9917 32.3382 20.0398 32.3992 20.1009C32.4603 20.1619 32.5084 20.2346 32.5407 20.3147C32.5731 20.3947 32.5889 20.4805 32.5874 20.5668C32.5859 20.6531 32.567 20.7382 32.5319 20.8171C32.4967 20.896 32.4461 20.9669 32.3829 21.0258L24.4543 28.9543C24.3338 29.0747 24.1704 29.1424 24.0001 29.1424C23.8297 29.1424 23.6663 29.0747 23.5458 28.9543L15.6172 21.0258C15.4968 20.9052 15.4292 20.7418 15.4292 20.5715C15.4292 20.4011 15.4968 20.2377 15.6172 20.1172Z"/>
</mask>
<path d="M15.6172 20.1172L14.5572 19.0559L14.5559 19.0572L15.6172 20.1172ZM16.5258 20.1172L17.5864 19.0565L17.5858 19.0559L16.5258 20.1172ZM24.0001 27.5915L22.9394 28.6522L24.0001 29.7128L25.0607 28.6522L24.0001 27.5915ZM31.4743 20.1172L32.535 21.1779L32.5537 21.1592L32.5718 21.1398L31.4743 20.1172ZM32.3829 21.0258L31.3603 19.9284L31.341 19.9464L31.3223 19.9651L32.3829 21.0258ZM24.4543 28.9543L25.5143 30.0157L25.515 30.015L24.4543 28.9543ZM23.5458 28.9543L22.4851 30.015L22.4858 30.0157L23.5458 28.9543ZM15.6172 21.0258L14.5559 22.0858L14.5565 22.0864L15.6172 21.0258ZM16.6772 21.1785C16.5165 21.339 16.2986 21.4292 16.0715 21.4292V18.4292C15.5036 18.4292 14.959 18.6546 14.5572 19.0559L16.6772 21.1785ZM16.0715 21.4292C15.8443 21.4292 15.6265 21.339 15.4658 21.1785L17.5858 19.0559C17.184 18.6546 16.6394 18.4292 16.0715 18.4292V21.4292ZM15.4651 21.1779L22.9394 28.6522L25.0607 26.5308L17.5864 19.0565L15.4651 21.1779ZM25.0607 28.6522L32.535 21.1779L30.4137 19.0565L22.9394 26.5308L25.0607 28.6522ZM32.5718 21.1398C32.4933 21.224 32.3987 21.2915 32.2935 21.3384L31.0725 18.5981C30.8097 18.7152 30.5731 18.8841 30.3769 19.0946L32.5718 21.1398ZM32.2935 21.3384C32.1884 21.3852 32.0749 21.4104 31.9598 21.4125L31.9069 18.4129C31.6192 18.418 31.3354 18.481 31.0725 18.5981L32.2935 21.3384ZM31.9598 21.4125C31.8447 21.4145 31.7304 21.3933 31.6237 21.3502L32.7472 18.5686C32.4804 18.4608 32.1946 18.4079 31.9069 18.4129L31.9598 21.4125ZM31.6237 21.3502C31.5169 21.3071 31.42 21.2429 31.3386 21.1615L33.4599 19.0402C33.2564 18.8367 33.014 18.6763 32.7472 18.5686L31.6237 21.3502ZM31.3386 21.1615C31.2572 21.0802 31.193 20.9832 31.1499 20.8765L33.9316 19.7529C33.8238 19.4861 33.6634 19.2437 33.4599 19.0402L31.3386 21.1615ZM31.1499 20.8765C31.1068 20.7697 31.0856 20.6554 31.0877 20.5403L34.0872 20.5933C34.0923 20.3056 34.0394 20.0198 33.9316 19.7529L31.1499 20.8765ZM31.0877 20.5403C31.0897 20.4253 31.1149 20.3117 31.1617 20.2066L33.902 21.4276C34.0191 21.1647 34.0821 20.881 34.0872 20.5933L31.0877 20.5403ZM31.1617 20.2066C31.2086 20.1015 31.2761 20.0068 31.3603 19.9284L33.4055 22.1232C33.616 21.927 33.7849 21.6904 33.902 21.4276L31.1617 20.2066ZM31.3223 19.9651L23.3937 27.8937L25.515 30.015L33.4436 22.0864L31.3223 19.9651ZM23.3943 27.893C23.5551 27.7325 23.7729 27.6424 24.0001 27.6424V30.6424C24.5679 30.6424 25.1126 30.417 25.5143 30.0157L23.3943 27.893ZM24.0001 27.6424C24.2272 27.6424 24.4451 27.7325 24.6058 27.893L22.4858 30.0157C22.8876 30.417 23.4322 30.6424 24.0001 30.6424V27.6424ZM24.6064 27.8937L16.6779 19.9651L14.5565 22.0864L22.4851 30.015L24.6064 27.8937ZM16.6785 19.9658C16.839 20.1265 16.9292 20.3443 16.9292 20.5715H13.9292C13.9292 21.1393 14.1546 21.684 14.5559 22.0858L16.6785 19.9658ZM16.9292 20.5715C16.9292 20.7986 16.839 21.0165 16.6785 21.1772L14.5559 19.0572C14.1546 19.459 13.9292 20.0036 13.9292 20.5715H16.9292Z" fill="#0B0B0B" mask="url(#path-3-inside-1_365_2267)"/>
<rect x="0.75" y="0.75" width="46.5" height="46.5" stroke="#0B0B0B" stroke-width="1.5"/>
</g>
<defs>
<filter id="filter0_b_365_2267" x="-3" y="-3" width="54" height="54" filterUnits="userSpaceOnUse" color-interpolation-filters="sRGB">
<feFlood flood-opacity="0" result="BackgroundImageFix"/>
<feGaussianBlur in="BackgroundImageFix" stdDeviation="1.5"/>
<feComposite in2="SourceAlpha" operator="in" result="effect1_backgroundBlur_365_2267"/>
<feBlend mode="normal" in="SourceGraphic" in2="effect1_backgroundBlur_365_2267" result="shape"/>
</filter>
</defs>
</svg>
