<svg width="259" height="259" viewBox="0 0 259 259" fill="none" xmlns="http://www.w3.org/2000/svg">
<g opacity="0.7">
<path d="M123.43 42.4922L129.045 48.5626L135.115 42.5024C152.061 25.986 175.533 18.469 198.6 22.3084C233.454 28.1157 259 58.2751 259 93.6346V96.5686C259 117.562 250.299 137.644 234.921 151.96L143.512 237.299C139.718 240.84 134.71 242.813 129.5 242.813C124.29 242.813 119.282 240.84 115.488 237.299L24.0738 151.96C8.71596 137.644 0 117.562 0 96.5686V93.6346C0 58.2751 25.556 28.1157 60.3996 22.3084C83.0115 18.469 106.939 25.986 123.43 42.4922C123.43 42.4973 122.974 42.4922 123.43 42.4922ZM129.045 82.9104L106.281 59.2362C95.3039 48.7042 79.7234 43.7063 64.3959 46.2558C41.2528 50.1155 24.2812 70.1628 24.2812 93.6346V96.5686C24.2812 110.834 30.2049 124.492 40.6407 134.205L129.5 217.165L218.38 134.205C228.8 124.492 234.719 110.834 234.719 96.5686V93.6346C234.719 70.1628 217.722 50.1155 194.604 46.2558C179.277 43.7063 163.696 48.7042 152.719 59.2362L129.045 82.9104Z" fill="#0B0B0B"/>
</g>
</svg>
