<svg width="11" height="12" viewBox="0 0 11 12" fill="none" xmlns="http://www.w3.org/2000/svg">
<path d="M9.84867 0.317455C6.95856 -0.00555798 4.04145 -0.00555798 1.15134 0.317455C0.988044 0.335612 0.83265 0.397386 0.701459 0.496293C0.570268 0.595201 0.468118 0.727596 0.405726 0.879586C0.343334 1.03158 0.323002 1.19756 0.346863 1.36011C0.370723 1.52267 0.437897 1.67581 0.541335 1.80346L3.054 4.90946C3.77378 5.79923 4.16653 6.909 4.16667 8.05346V10.1481C4.16661 10.2266 4.18505 10.3041 4.22049 10.3742C4.25593 10.4442 4.30738 10.505 4.37067 10.5515L6.218 11.9061C6.27564 11.9484 6.34386 11.9739 6.41509 11.9797C6.48633 11.9855 6.55779 11.9715 6.62153 11.9392C6.68528 11.9069 6.73882 11.8575 6.77621 11.7966C6.8136 11.7357 6.83337 11.6656 6.83334 11.5941V8.05346C6.83351 6.90869 7.22651 5.79865 7.94667 4.90879L10.4587 1.80212C10.5619 1.67447 10.629 1.52139 10.6527 1.35893C10.6765 1.19647 10.6561 1.03061 10.5937 0.878731C10.5314 0.726852 10.4293 0.594545 10.2982 0.495678C10.1671 0.396811 10.0118 0.335689 9.84867 0.317455Z" fill="#0B0B0B"/>
</svg>
