<svg width="16" height="17" viewBox="0 0 16 17" fill="none" xmlns="http://www.w3.org/2000/svg">
<mask id="path-1-inside-1_541_1431" fill="white">
<path d="M6.80006 12.1C5.8507 12.1 4.92266 11.8185 4.13329 11.2911C3.34392 10.7636 2.72869 10.014 2.36538 9.13688C2.00208 8.25979 1.90702 7.29467 2.09223 6.36357C2.27745 5.43246 2.73461 4.57718 3.40591 3.90589C4.07721 3.2346 4.93249 2.77744 5.86361 2.59223C6.79473 2.40702 7.75986 2.50208 8.63696 2.86538C9.51406 3.22868 10.2637 3.84391 10.7912 4.63326C11.3186 5.42262 11.6001 6.35065 11.6001 7.3C11.5987 8.5726 11.0925 9.79267 10.1926 10.6925C9.29276 11.5924 8.07267 12.0986 6.80006 12.1ZM6.80006 3.7C6.08804 3.7 5.39201 3.91114 4.79998 4.30671C4.20796 4.70228 3.74653 5.26453 3.47405 5.92234C3.20157 6.58015 3.13028 7.30399 3.26919 8.00232C3.4081 8.70066 3.75097 9.34211 4.25444 9.84558C4.75792 10.3491 5.39939 10.6919 6.09772 10.8308C6.79606 10.9697 7.51991 10.8984 8.17773 10.626C8.83556 10.3535 9.39781 9.89207 9.79338 9.30005C10.189 8.70803 10.4001 8.01201 10.4001 7.3C10.3991 6.34551 10.0196 5.43039 9.34462 4.75547C8.66969 4.08055 7.75456 3.70095 6.80006 3.7Z"/>
<path d="M13.4001 14.5C13.241 14.5 13.0884 14.4367 12.9759 14.3242L10.5759 11.9242C10.4666 11.811 10.4061 11.6595 10.4075 11.5022C10.4088 11.3448 10.472 11.1944 10.5832 11.0831C10.6944 10.9719 10.8449 10.9088 11.0023 10.9074C11.1596 10.906 11.3111 10.9665 11.4243 11.0758L13.8243 13.4758C13.9082 13.5597 13.9653 13.6666 13.9885 13.783C14.0116 13.8994 13.9997 14.02 13.9543 14.1296C13.9089 14.2392 13.832 14.3329 13.7334 14.3988C13.6348 14.4648 13.5188 14.5 13.4001 14.5Z"/>
</mask>
<path d="M6.80006 12.1V13.6L6.80174 13.6L6.80006 12.1ZM11.6001 7.3L13.1001 7.30168V7.3H11.6001ZM6.80006 3.7L6.80156 2.2H6.80006V3.7ZM10.4001 7.3H11.9001L11.9001 7.2985L10.4001 7.3ZM13.4001 14.5L13.3998 16H13.4004L13.4001 14.5ZM12.9759 14.3242L14.0367 13.2637L14.0366 13.2635L12.9759 14.3242ZM10.5759 11.9242L9.49696 12.9663L9.50602 12.9757L9.51523 12.9849L10.5759 11.9242ZM11.4243 11.0758L12.485 10.0151L12.4757 10.0059L12.4664 9.99686L11.4243 11.0758ZM13.8243 13.4758L14.8851 12.4153L14.885 12.4151L13.8243 13.4758ZM6.80006 10.6C6.14737 10.6 5.50933 10.4065 4.96664 10.0438L3.29994 12.5383C4.33598 13.2305 5.55403 13.6 6.80006 13.6V10.6ZM4.96664 10.0438C4.42395 9.68123 4.00097 9.16584 3.7512 8.56285L0.979568 9.71091C1.45641 10.8621 2.2639 11.846 3.29994 12.5383L4.96664 10.0438ZM3.7512 8.56285C3.50143 7.95985 3.43608 7.29634 3.56341 6.65621L0.621057 6.07093C0.377966 7.29301 0.502729 8.55973 0.979568 9.71091L3.7512 8.56285ZM3.56341 6.65621C3.69074 6.01607 4.00504 5.42807 4.46656 4.96656L2.34525 2.84522C1.46417 3.72629 0.864147 4.84884 0.621057 6.07093L3.56341 6.65621ZM4.46656 4.96656C4.92808 4.50504 5.51609 4.19074 6.15625 4.06341L5.57098 1.12105C4.34889 1.36414 3.22633 1.96415 2.34525 2.84522L4.46656 4.96656ZM6.15625 4.06341C6.7964 3.93608 7.45993 4.00143 8.06294 4.2512L9.21098 1.47956C8.0598 1.00273 6.79307 0.877969 5.57098 1.12105L6.15625 4.06341ZM8.06294 4.2512C8.66595 4.50097 9.18135 4.92394 9.54396 5.46663L12.0384 3.7999C11.3461 2.76387 10.3622 1.95639 9.21098 1.47956L8.06294 4.2512ZM9.54396 5.46663C9.90657 6.00931 10.1001 6.64733 10.1001 7.3H13.1001C13.1001 6.05397 12.7306 4.83593 12.0384 3.7999L9.54396 5.46663ZM10.1001 7.29832C10.0991 8.17367 9.75096 9.01289 9.13198 9.63187L11.2533 11.7532C12.4341 10.5724 13.0982 8.97153 13.1001 7.30168L10.1001 7.29832ZM9.13198 9.63187C8.513 10.2508 7.67375 10.599 6.79837 10.6L6.80174 13.6C8.47159 13.5981 10.0725 12.934 11.2533 11.7532L9.13198 9.63187ZM6.80006 2.2C5.79137 2.2 4.80533 2.49911 3.96663 3.0595L5.63333 5.55392C5.97868 5.32317 6.38471 5.2 6.80006 5.2V2.2ZM3.96663 3.0595C3.12794 3.61989 2.47425 4.4164 2.08824 5.34831L4.85987 6.49637C5.01881 6.11265 5.28798 5.78467 5.63333 5.55392L3.96663 3.0595ZM2.08824 5.34831C1.70222 6.28021 1.60122 7.30566 1.79801 8.29496L4.74037 7.70969C4.65934 7.30233 4.70092 6.88009 4.85987 6.49637L2.08824 5.34831ZM1.79801 8.29496C1.9948 9.28427 2.48054 10.193 3.19379 10.9062L5.3151 8.78492C5.0214 8.49122 4.8214 8.11704 4.74037 7.70969L1.79801 8.29496ZM3.19379 10.9062C3.90705 11.6195 4.81579 12.1052 5.80509 12.302L6.39036 9.35965C5.98299 9.27862 5.60879 9.07861 5.3151 8.78492L3.19379 10.9062ZM5.80509 12.302C6.7944 12.4988 7.81985 12.3978 8.75175 12.0118L7.60372 9.24014C7.21998 9.39909 6.79773 9.44068 6.39036 9.35965L5.80509 12.302ZM8.75175 12.0118C9.68366 11.6258 10.4802 10.9721 11.0406 10.1334L8.54618 8.46669C8.31543 8.81203 7.98745 9.0812 7.60372 9.24014L8.75175 12.0118ZM11.0406 10.1334C11.601 9.29472 11.9001 8.30869 11.9001 7.3H8.9001C8.9001 7.71534 8.77694 8.12135 8.54618 8.46669L11.0406 10.1334ZM11.9001 7.2985C11.8987 5.9467 11.3611 4.65066 10.4053 3.6948L8.28397 5.81614C8.67796 6.21012 8.89954 6.74432 8.9001 7.3015L11.9001 7.2985ZM10.4053 3.6948C9.4494 2.73894 8.15335 2.20135 6.80156 2.2L6.79856 5.2C7.35576 5.20056 7.88997 5.42215 8.28397 5.81614L10.4053 3.6948ZM13.4004 13C13.6391 13.0001 13.868 13.0949 14.0367 13.2637L11.9151 15.3847C12.3088 15.7786 12.8429 15.9999 13.3998 16L13.4004 13ZM14.0366 13.2635L11.6365 10.8635L9.51523 12.9849L11.9153 15.3849L14.0366 13.2635ZM11.6548 10.8821C11.8188 11.0519 11.9095 11.2792 11.9074 11.5152L8.90754 11.4891C8.90275 12.0397 9.11443 12.5702 9.49696 12.9663L11.6548 10.8821ZM11.9074 11.5152C11.9054 11.7512 11.8107 11.9769 11.6439 12.1438L9.52254 10.0224C9.13318 10.4118 8.91232 10.9385 8.90754 11.4891L11.9074 11.5152ZM11.6439 12.1438C11.477 12.3106 11.2513 12.4053 11.0153 12.4073L10.9892 9.40745C10.4386 9.41224 9.9119 9.63309 9.52254 10.0224L11.6439 12.1438ZM11.0153 12.4073C10.7793 12.4094 10.552 12.3187 10.3822 12.1547L12.4664 9.99686C12.0703 9.61433 11.5398 9.40267 10.9892 9.40745L11.0153 12.4073ZM10.3636 12.1365L12.7637 14.5365L14.885 12.4151L12.485 10.0151L10.3636 12.1365ZM12.7635 14.5363C12.6377 14.4104 12.552 14.2501 12.5173 14.0755L15.4597 13.4904C15.3787 13.0831 15.1787 12.709 14.8851 12.4153L12.7635 14.5363ZM12.5173 14.0755C12.4826 13.901 12.5004 13.72 12.5685 13.5556L15.3402 14.7036C15.4991 14.3199 15.5407 13.8977 15.4597 13.4904L12.5173 14.0755ZM12.5685 13.5556C12.6366 13.3912 12.7519 13.2506 12.8999 13.1517L14.5669 15.6459C14.9122 15.4152 15.1813 15.0872 15.3402 14.7036L12.5685 13.5556ZM12.8999 13.1517C13.0479 13.0528 13.2218 13 13.3998 13L13.4004 16C13.8157 15.9999 14.2216 15.8767 14.5669 15.6459L12.8999 13.1517Z" fill="#B0B0B0" mask="url(#path-1-inside-1_541_1431)"/>
</svg>
