<svg width="48" height="48" viewBox="0 0 48 48" fill="none" xmlns="http://www.w3.org/2000/svg">
<g filter="url(#filter0_b_365_2266)">
<mask id="path-3-inside-1_365_2266" fill="white">
<path d="M32.3994 28.9377C32.2789 29.0581 32.1155 29.1257 31.9451 29.1257C31.7748 29.1257 31.6114 29.0581 31.4908 28.9377L24.0165 21.4634L16.5423 28.9377C16.4834 29.0009 16.4124 29.0515 16.3336 29.0867C16.2547 29.1218 16.1696 29.1407 16.0833 29.1422C15.997 29.1438 15.9112 29.1279 15.8312 29.0955C15.7511 29.0632 15.6784 29.0151 15.6174 28.954C15.5563 28.893 15.5082 28.8203 15.4759 28.7402C15.4435 28.6602 15.4277 28.5745 15.4292 28.4881C15.4307 28.4018 15.4496 28.3167 15.4847 28.2378C15.5199 28.159 15.5705 28.088 15.6337 28.0292L23.5623 20.1006C23.6828 19.9802 23.8462 19.9126 24.0165 19.9126C24.1869 19.9126 24.3503 19.9802 24.4708 20.1006L32.3994 28.0292C32.5198 28.1497 32.5874 28.3131 32.5874 28.4834C32.5874 28.6538 32.5198 28.8172 32.3994 28.9377Z"/>
</mask>
<path d="M32.3994 28.9377L33.4594 29.999L33.4607 29.9977L32.3994 28.9377ZM31.4908 28.9377L30.4302 29.9984L30.4308 29.999L31.4908 28.9377ZM24.0165 21.4634L25.0772 20.4028L24.0165 19.3421L22.9559 20.4028L24.0165 21.4634ZM16.5423 28.9377L15.4816 27.8771L15.4629 27.8958L15.4448 27.9151L16.5423 28.9377ZM15.6337 28.0292L16.6563 29.1266L16.6756 29.1085L16.6943 29.0898L15.6337 28.0292ZM23.5623 20.1006L22.5023 19.0393L22.5016 19.0399L23.5623 20.1006ZM24.4708 20.1006L25.5315 19.0399L25.5308 19.0393L24.4708 20.1006ZM32.3994 28.0292L33.4607 26.9692L33.4601 26.9685L32.3994 28.0292ZM31.3394 27.8764C31.5001 27.7159 31.718 27.6257 31.9451 27.6257V30.6257C32.513 30.6257 33.0576 30.4003 33.4594 29.999L31.3394 27.8764ZM31.9451 27.6257C32.1723 27.6257 32.3901 27.7159 32.5508 27.8764L30.4308 29.999C30.8326 30.4003 31.3773 30.6257 31.9451 30.6257V27.6257ZM32.5515 27.8771L25.0772 20.4028L22.9559 22.5241L30.4302 29.9984L32.5515 27.8771ZM22.9559 20.4028L15.4816 27.8771L17.6029 29.9984L25.0772 22.5241L22.9559 20.4028ZM15.4448 27.9151C15.5233 27.8309 15.6179 27.7634 15.7231 27.7165L16.9441 30.4568C17.2069 30.3397 17.4435 30.1708 17.6397 29.9603L15.4448 27.9151ZM15.7231 27.7165C15.8282 27.6697 15.9417 27.6445 16.0568 27.6425L16.1097 30.642C16.3975 30.6369 16.6812 30.5739 16.9441 30.4568L15.7231 27.7165ZM16.0568 27.6425C16.1719 27.6404 16.2862 27.6616 16.3929 27.7047L15.2694 30.4864C15.5362 30.5941 15.822 30.6471 16.1097 30.642L16.0568 27.6425ZM16.3929 27.7047C16.4997 27.7478 16.5966 27.812 16.678 27.8934L14.5567 30.0147C14.7602 30.2182 15.0026 30.3786 15.2694 30.4864L16.3929 27.7047ZM16.678 27.8934C16.7594 27.9748 16.8236 28.0717 16.8667 28.1785L14.085 29.302C14.1928 29.5689 14.3532 29.8112 14.5567 30.0147L16.678 27.8934ZM16.8667 28.1785C16.9098 28.2852 16.931 28.3995 16.9289 28.5146L13.9294 28.4617C13.9243 28.7494 13.9773 29.0352 14.085 29.302L16.8667 28.1785ZM16.9289 28.5146C16.9269 28.6297 16.9017 28.7432 16.8549 28.8483L14.1146 27.6273C13.9975 27.8902 13.9345 28.174 13.9294 28.4617L16.9289 28.5146ZM16.8549 28.8483C16.808 28.9535 16.7405 29.0481 16.6563 29.1266L14.6111 26.9317C14.4006 27.1279 14.2317 27.3645 14.1146 27.6273L16.8549 28.8483ZM16.6943 29.0898L24.6229 21.1612L22.5016 19.0399L14.573 26.9685L16.6943 29.0898ZM24.6223 21.1619C24.4615 21.3224 24.2437 21.4126 24.0165 21.4126V18.4126C23.4487 18.4126 22.904 18.638 22.5023 19.0393L24.6223 21.1619ZM24.0165 21.4126C23.7894 21.4126 23.5715 21.3224 23.4108 21.1619L25.5308 19.0393C25.129 18.638 24.5844 18.4126 24.0165 18.4126V21.4126ZM23.4102 21.1612L31.3387 29.0898L33.4601 26.9685L25.5315 19.0399L23.4102 21.1612ZM31.3381 29.0892C31.1776 28.9284 31.0874 28.7106 31.0874 28.4834H34.0874C34.0874 27.9156 33.862 27.3709 33.4607 26.9692L31.3381 29.0892ZM31.0874 28.4834C31.0874 28.2563 31.1776 28.0384 31.3381 27.8777L33.4607 29.9977C33.862 29.5959 34.0874 29.0513 34.0874 28.4834H31.0874Z" fill="#0B0B0B" mask="url(#path-3-inside-1_365_2266)"/>
<rect x="0.75" y="0.75" width="46.5" height="46.5" stroke="black" stroke-width="1.5"/>
</g>
<defs>
<filter id="filter0_b_365_2266" x="-3" y="-3" width="54" height="54" filterUnits="userSpaceOnUse" color-interpolation-filters="sRGB">
<feFlood flood-opacity="0" result="BackgroundImageFix"/>
<feGaussianBlur in="BackgroundImageFix" stdDeviation="1.5"/>
<feComposite in2="SourceAlpha" operator="in" result="effect1_backgroundBlur_365_2266"/>
<feBlend mode="normal" in="SourceGraphic" in2="effect1_backgroundBlur_365_2266" result="shape"/>
</filter>
</defs>
</svg>
